<?xml version="1.0" encoding="UTF-8"?>
<!DOCTYPE svg PUBLIC "-//W3C//DTD SVG 1.1//EN" "http://www.w3.org/Graphics/SVG/1.1/DTD/svg11.dtd">
<!-- Creator: CorelDRAW -->
<svg xmlns="http://www.w3.org/2000/svg" xml:space="preserve" width="200mm" height="200mm" version="1.1" style="shape-rendering:geometricPrecision; text-rendering:geometricPrecision; image-rendering:optimizeQuality; fill-rule:evenodd; clip-rule:evenodd"
viewBox="0 0 20000 20000"
 xmlns:xlink="http://www.w3.org/1999/xlink"
 xmlns:xodm="http://www.corel.com/coreldraw/odm/2003">
 <defs>
  <style type="text/css">
   <![CDATA[
    .str0 {stroke:#E64E30;stroke-width:265.01;stroke-miterlimit:10}
    .str1 {stroke:#292C35;stroke-width:265.01;stroke-miterlimit:10}
    .fil0 {fill:none;fill-rule:nonzero}
   ]]>
  </style>
 </defs>
 <g id="Слой_x0020_1">
  <metadata id="CorelCorpID_0Corel-Layer"/>
  <line class="fil0 str0" x1="14247.18" y1="1596.58" x2="13432.31" y2= "1596.58" />
  <line class="fil0 str0" x1="3402.89" y1="9453.86" x2="5666.96" y2= "9453.86" />
  <line class="fil0 str0" x1="3402.89" y1="11289.6" x2="5666.96" y2= "11289.6" />
  <line class="fil0 str0" x1="3402.89" y1="13125.33" x2="5666.96" y2= "13125.33" />
  <line class="fil0 str0" x1="3402.89" y1="14961.06" x2="4932.64" y2= "14961.06" />
  <line class="fil0 str0" x1="9185.89" y1="6568.99" x2="9843.69" y2= "6568.99" />
  <line class="fil0 str0" x1="9185.89" y1="7641.37" x2="9843.69" y2= "7641.37" />
  <line class="fil0 str0" x1="9185.89" y1="8713.77" x2="9843.69" y2= "8713.77" />
  <line class="fil0 str0" x1="9185.89" y1="9786.16" x2="9843.69" y2= "9786.16" />
  <line class="fil0 str0" x1="9185.89" y1="10821.27" x2="9843.69" y2= "10821.27" />
  <line class="fil0 str0" x1="9185.89" y1="11893.65" x2="9843.69" y2= "11893.65" />
  <line class="fil0 str0" x1="9185.89" y1="12966.04" x2="9843.69" y2= "12966.04" />
  <line class="fil0 str0" x1="9185.89" y1="14038.43" x2="9843.69" y2= "14038.43" />
  <line class="fil0 str0" x1="16935.77" y1="6568.99" x2="16120.85" y2= "6568.99" />
  <line class="fil0 str0" x1="16935.77" y1="10538.37" x2="16120.85" y2= "10538.37" />
  <polygon class="fil0 str1" points="5299.81,7948.64 3402.88,7948.64 3402.88,16454.18 10501,16454.18 10501,942.27 5299.81,3695.85 "/>
  <polyline class="fil0 str1" points="5299.81,7948.64 7502.67,7948.64 7502.67,16466.27 "/>
  <polyline class="fil0 str1" points="10501.01,4430.16 9185.43,4430.16 9185.43,16454.16 "/>
  <polyline class="fil0 str1" points="11712.4,866.67 12411.69,2730.27 12411.69,10641.34 14325.44,16466.29 11048.69,16466.29 11048.69,820.2 13820.63,820.2 13820.63,1404.48 "/>
  <polyline class="fil0 str1" points="11048.68,2730.28 12411.68,2730.28 16528.3,4749.58 16528.3,6371.13 "/>
  <line class="fil0 str1" x1="15089.06" y1="5776.37" x2="16528.29" y2= "5776.37" />
  <line class="fil0 str1" x1="11048.68" y1="5776.37" x2="14274.17" y2= "5776.37" />
  <line class="fil0 str1" x1="12411.69" y1="10641.34" x2="11048.7" y2= "10641.34" />
  <line class="fil0 str1" x1="12411.69" y1="2730.28" x2="11048.7" y2= "4246.61" />
  <line class="fil0 str1" x1="12411.69" y1="5776.37" x2="11048.7" y2= "4246.62" />
  <line class="fil0 str1" x1="11048.68" y1="15658.66" x2="14063.52" y2= "15658.66" />
  <line class="fil0 str1" x1="12085.36" y1="13851.91" x2="11048.68" y2= "12905.1" />
  <line class="fil0 str1" x1="14063.54" y1="15658.66" x2="12687.06" y2= "14401.49" />
  <line class="fil0 str1" x1="11048.68" y1="12905.1" x2="12411.68" y2= "10641.35" />
  <line class="fil0 str1" x1="11048.68" y1="9756.77" x2="16528.3" y2= "9756.77" />
  <line class="fil0 str1" x1="12371.22" y1="6691.59" x2="11008.18" y2= "8207.91" />
  <line class="fil0 str1" x1="12371.22" y1="9737.67" x2="11008.18" y2= "8207.92" />
  <polyline class="fil0 str1" points="11048.68,6710.7 12411.68,6710.7 16528.3,8729.99 16528.3,10351.55 "/>
 </g>
</svg>
